<svg width="36" height="28" viewBox="0 0 36 28" fill="none" xmlns="http://www.w3.org/2000/svg">
<path d="M5.74988 0C4.35749 0 3.02213 0.553123 2.03757 1.53769C1.053 2.52226 0.499878 3.85761 0.499878 5.25V22.75C0.499878 24.1424 1.053 25.4777 2.03757 26.4623C3.02213 27.4469 4.35749 28 5.74988 28H30.2499C31.6423 28 32.9776 27.4469 33.9622 26.4623C34.9468 25.4777 35.4999 24.1424 35.4999 22.75V5.25C35.4999 3.85761 34.9468 2.52226 33.9622 1.53769C32.9776 0.553123 31.6423 0 30.2499 0H5.74988ZM3.99988 5.25C3.99988 4.78587 4.18425 4.34075 4.51244 4.01256C4.84063 3.68437 5.28575 3.5 5.74988 3.5H30.2499C30.714 3.5 31.1591 3.68437 31.4873 4.01256C31.8155 4.34075 31.9999 4.78587 31.9999 5.25V22.75C31.9999 23.2141 31.8155 23.6592 31.4873 23.9874C31.1591 24.3156 30.714 24.5 30.2499 24.5H5.74988C5.28575 24.5 4.84063 24.3156 4.51244 23.9874C4.18425 23.6592 3.99988 23.2141 3.99988 22.75V5.25ZM23.2499 7C22.7858 7 22.3406 7.18437 22.0124 7.51256C21.6843 7.84075 21.4999 8.28587 21.4999 8.75C21.4999 9.21413 21.6843 9.65925 22.0124 9.98744C22.3406 10.3156 22.7858 10.5 23.2499 10.5H28.4999C28.964 10.5 29.4091 10.3156 29.7373 9.98744C30.0655 9.65925 30.2499 9.21413 30.2499 8.75C30.2499 8.28587 30.0655 7.84075 29.7373 7.51256C29.4091 7.18437 28.964 7 28.4999 7H23.2499ZM23.2499 12.25C22.7858 12.25 22.3406 12.4344 22.0124 12.7626C21.6843 13.0908 21.4999 13.5359 21.4999 14C21.4999 14.4641 21.6843 14.9092 22.0124 15.2374C22.3406 15.5656 22.7858 15.75 23.2499 15.75H28.4999C28.964 15.75 29.4091 15.5656 29.7373 15.2374C30.0655 14.9092 30.2499 14.4641 30.2499 14C30.2499 13.5359 30.0655 13.0908 29.7373 12.7626C29.4091 12.4344 28.964 12.25 28.4999 12.25H23.2499ZM23.2499 17.5C22.7858 17.5 22.3406 17.6844 22.0124 18.0126C21.6843 18.3407 21.4999 18.7859 21.4999 19.25C21.4999 19.7141 21.6843 20.1592 22.0124 20.4874C22.3406 20.8156 22.7858 21 23.2499 21H24.9999C25.464 21 25.9091 20.8156 26.2373 20.4874C26.5655 20.1592 26.7499 19.7141 26.7499 19.25C26.7499 18.7859 26.5655 18.3407 26.2373 18.0126C25.9091 17.6844 25.464 17.5 24.9999 17.5H23.2499Z" fill="#4A93B3"/>
<path d="M12.75 10.5C12.2859 10.5 11.8408 10.6844 11.5126 11.0126C11.1844 11.3408 11 11.7859 11 12.25C11 12.7141 11.1844 13.1592 11.5126 13.4874C11.8408 13.8156 12.2859 14 12.75 14C13.2141 14 13.6592 13.8156 13.9874 13.4874C14.3156 13.1592 14.5 12.7141 14.5 12.25C14.5 11.7859 14.3156 11.3408 13.9874 11.0126C13.6592 10.6844 13.2141 10.5 12.75 10.5ZM7.5 12.25C7.5 10.8576 8.05312 9.52225 9.03769 8.53769C10.0223 7.55312 11.3576 7 12.75 7C14.1424 7 15.4777 7.55312 16.4623 8.53769C17.4469 9.52225 18 10.8576 18 12.25C18 13.6424 17.4469 14.9777 16.4623 15.9623C15.4777 16.9469 14.1424 17.5 12.75 17.5C11.3576 17.5 10.0223 16.9469 9.03769 15.9623C8.05312 14.9777 7.5 13.6424 7.5 12.25Z" fill="#4A93B3"/>
<path d="M12.75 17.5C11.0175 17.5 9.76277 18.6375 9.06452 20.0323C8.96623 20.245 8.82621 20.4359 8.65277 20.5935C8.47932 20.7511 8.27598 20.8723 8.05482 20.9498C7.83365 21.0274 7.59916 21.0597 7.36527 21.0449C7.13137 21.0301 6.90283 20.9684 6.69321 20.8636C6.48358 20.7588 6.29715 20.613 6.14497 20.4347C5.99278 20.2565 5.87795 20.0495 5.80728 19.826C5.73661 19.6026 5.71155 19.3672 5.73358 19.1339C5.75561 18.9006 5.82428 18.674 5.93552 18.4678C6.98727 16.3608 9.23252 14 12.75 14C16.2675 14 18.5128 16.3625 19.5645 18.4678C19.6758 18.674 19.7444 18.9006 19.7665 19.1339C19.7885 19.3672 19.7634 19.6026 19.6928 19.826C19.6221 20.0495 19.5072 20.2565 19.3551 20.4347C19.2029 20.613 19.0164 20.7588 18.8068 20.8636C18.5972 20.9684 18.3687 21.0301 18.1348 21.0449C17.9009 21.0597 17.6664 21.0274 17.4452 20.9498C17.224 20.8723 17.0207 20.7511 16.8473 20.5935C16.6738 20.4359 16.5338 20.245 16.4355 20.0323C15.7373 18.6393 14.4825 17.5 12.75 17.5Z" fill="#4A93B3"/>
</svg>
