<svg width="35" height="30" viewBox="0 0 35 30" fill="none" xmlns="http://www.w3.org/2000/svg">
<path d="M21.4706 21.5V24.75C21.4706 25.612 21.1349 26.4386 20.5373 27.0481C19.9398 27.6576 19.1293 28 18.2843 28H5.53918C4.69413 28 3.88369 27.6576 3.28614 27.0481C2.6886 26.4386 2.35291 25.612 2.35291 24.75V5.25C2.35291 4.38805 2.6886 3.5614 3.28614 2.9519C3.88369 2.34241 4.69413 2 5.53918 2H17.647C19.4066 2 21.4706 3.45519 21.4706 5.25V8.5" stroke="#EB5757" stroke-width="3" stroke-linecap="round" stroke-linejoin="round"/>
<path d="M26.8228 21.1176L32.9404 15L26.8228 8.88232" stroke="#EB5757" stroke-width="3" stroke-linecap="round" stroke-linejoin="round"/>
<path d="M11.5291 15H31.4114" stroke="#EB5757" stroke-width="3" stroke-linecap="round" stroke-linejoin="round"/>
</svg>
