<svg width="32" height="32" viewBox="0 0 32 32" fill="none" xmlns="http://www.w3.org/2000/svg">
<path d="M6.66663 7.99984C5.19996 7.99984 3.99996 9.19984 3.99996 10.6665C3.99996 12.1332 5.19996 13.3332 6.66663 13.3332C8.13329 13.3332 9.33329 12.1465 9.33329 10.6665C9.33329 9.1865 8.14663 7.99984 6.66663 7.99984ZM16 5.33317C15.4725 5.33317 14.957 5.48957 14.5184 5.78259C14.0799 6.0756 13.7381 6.49208 13.5363 6.97935C13.3344 7.46662 13.2816 8.0028 13.3845 8.52008C13.4874 9.03736 13.7414 9.51252 14.1143 9.88546C14.4873 10.2584 14.9624 10.5124 15.4797 10.6153C15.997 10.7182 16.5332 10.6653 17.0204 10.4635C17.5077 10.2617 17.9242 9.91989 18.2172 9.48136C18.5102 9.04283 18.6666 8.52725 18.6666 7.99984C18.6666 6.51984 17.48 5.33317 16 5.33317ZM25.3333 2.6665C23.8666 2.6665 22.6666 3.8665 22.6666 5.33317C22.6666 6.79984 23.8666 7.99984 25.3333 7.99984C26.8 7.99984 28 6.81317 28 5.33317C28 3.85317 26.8133 2.6665 25.3333 2.6665ZM4.66663 14.6665C3.55996 14.6665 2.66663 15.5598 2.66663 16.6665V22.6665H3.99996V29.3332H9.33329V22.6665H10.6666V16.6665C10.6666 15.5598 9.77329 14.6665 8.66663 14.6665H4.66663ZM14 11.9998C12.8933 11.9998 12 12.8932 12 13.9998V19.9998H13.3333V26.6665H18.6666V19.9998H20V13.9998C20 12.8932 19.1066 11.9998 18 11.9998H14ZM23.3333 9.33317C22.2266 9.33317 21.3333 10.2265 21.3333 11.3332V17.3332H22.6666V23.9998H28V17.3332H29.3333V11.3332C29.3333 10.2265 28.44 9.33317 27.3333 9.33317H23.3333Z" fill="#4A93B3"/>
</svg>
