<svg width="44" height="44" viewBox="0 0 44 44" fill="none" xmlns="http://www.w3.org/2000/svg">
<path d="M16.5 5.5C17.8598 5.5 19.189 5.90321 20.3196 6.65865C21.4501 7.41408 22.3313 8.48781 22.8517 9.74405C23.372 11.0003 23.5082 12.3826 23.2429 13.7162C22.9776 15.0499 22.3229 16.2749 21.3614 17.2364C20.3999 18.1978 19.1749 18.8526 17.8413 19.1179C16.5076 19.3832 15.1253 19.247 13.8691 18.7267C12.6128 18.2063 11.5391 17.3251 10.7837 16.1945C10.0282 15.064 9.625 13.7347 9.625 12.375C9.625 10.5516 10.3493 8.80295 11.6386 7.51364C12.928 6.22433 14.6766 5.5 16.5 5.5ZM16.5 2.75C14.5964 2.75 12.7355 3.3145 11.1526 4.37211C9.56982 5.42971 8.33616 6.93293 7.60766 8.69167C6.87917 10.4504 6.68856 12.3857 7.05995 14.2527C7.43133 16.1198 8.34802 17.8348 9.6941 19.1809C11.0402 20.527 12.7552 21.4437 14.6223 21.8151C16.4893 22.1864 18.4246 21.9958 20.1833 21.2673C21.9421 20.5388 23.4453 19.3052 24.5029 17.7224C25.5605 16.1395 26.125 14.2786 26.125 12.375C26.125 9.82229 25.1109 7.37413 23.3059 5.5691C21.5009 3.76406 19.0527 2.75 16.5 2.75Z" fill="#F2994A"/>
<path d="M30.25 41.25H27.5V34.375C27.5 32.5516 26.7757 30.803 25.4864 29.5136C24.197 28.2243 22.4484 27.5 20.625 27.5H12.375C10.5516 27.5 8.80295 28.2243 7.51364 29.5136C6.22433 30.803 5.5 32.5516 5.5 34.375V41.25H2.75V34.375C2.75 31.8223 3.76406 29.3741 5.5691 27.5691C7.37413 25.7641 9.82229 24.75 12.375 24.75H20.625C23.1777 24.75 25.6259 25.7641 27.4309 27.5691C29.2359 29.3741 30.25 31.8223 30.25 34.375V41.25Z" fill="#F2994A"/>
<path d="M30.25 5.5H44V8.25H30.25V5.5Z" fill="#F2994A"/>
<path d="M30.25 12.375H44V15.125H30.25V12.375Z" fill="#F2994A"/>
<path d="M30.25 19.25H39.875V22H30.25V19.25Z" fill="#F2994A"/>
</svg>
