<svg width="42" height="42" viewBox="0 0 42 42" fill="none" xmlns="http://www.w3.org/2000/svg">
<path d="M15 19.1399H14.13C12.9427 19.097 11.7593 19.2986 10.6532 19.7321C9.54711 20.1656 8.5419 20.8218 7.69996 21.6599L7.45996 21.9399V30.2199H11.54V25.5199L12.09 24.8999L12.34 24.6099C13.6419 23.2724 15.2627 22.2882 17.05 21.7499C16.1552 21.0691 15.4494 20.1706 15 19.1399Z" fill="#4A93B3"/>
<path d="M34.3399 21.6301C33.498 20.792 32.4928 20.1358 31.3867 19.7023C30.2806 19.2688 29.0972 19.0672 27.9099 19.1101C27.5458 19.1112 27.182 19.1312 26.8199 19.1701C26.362 20.1371 25.6756 20.9779 24.8199 21.6201C26.7279 22.148 28.4563 23.185 29.8199 24.6201L30.0699 24.9001L30.6099 25.5201V30.2301H34.5499V21.9101L34.3399 21.6301Z" fill="#4A93B3"/>
<path d="M14.1 17.1898H14.41C14.266 15.953 14.483 14.701 15.0348 13.5849C15.5867 12.4688 16.4498 11.5362 17.52 10.8998C17.1321 10.3072 16.5969 9.82541 15.9668 9.50175C15.3367 9.17809 14.6334 9.02361 13.9257 9.05343C13.218 9.08326 12.5302 9.29636 11.9296 9.67188C11.329 10.0474 10.8362 10.5725 10.4995 11.1957C10.1629 11.8188 9.99377 12.5188 10.0089 13.227C10.024 13.9351 10.2227 14.6272 10.5857 15.2355C10.9486 15.8438 11.4633 16.3474 12.0793 16.697C12.6954 17.0466 13.3917 17.2302 14.1 17.2298V17.1898Z" fill="#4A93B3"/>
<path d="M21.11 23.3C19.804 23.2473 18.5009 23.4593 17.279 23.9233C16.0572 24.3873 14.9418 25.0937 14 26L13.75 26.28V32.61C13.7539 32.8162 13.7984 33.0196 13.8809 33.2086C13.9634 33.3975 14.0824 33.5684 14.231 33.7114C14.3796 33.8544 14.5549 33.9668 14.7469 34.042C14.9389 34.1173 15.1438 34.154 15.35 34.15H26.84C27.0462 34.154 27.2511 34.1173 27.4431 34.042C27.6351 33.9668 27.8104 33.8544 27.959 33.7114C28.1076 33.5684 28.2266 33.3975 28.3091 33.2086C28.3916 33.0196 28.4361 32.8162 28.44 32.61V26.3L28.2 26C27.2643 25.0909 26.1528 24.3825 24.9337 23.9182C23.7145 23.4539 22.4134 23.2436 21.11 23.3Z" fill="#4A93B3"/>
<path d="M20.87 20.9201C21.708 20.9153 22.5277 20.6745 23.2352 20.2252C23.9426 19.776 24.5092 19.1365 24.87 18.3801C24.2544 18.328 23.6619 18.1214 23.1474 17.7793C22.633 17.4373 22.2132 16.9709 21.927 16.4234C21.6408 15.8759 21.4974 15.2651 21.5102 14.6474C21.5229 14.0298 21.6914 13.4253 22 12.8901L22.35 12.2801C21.8763 12.1028 21.3757 12.0081 20.87 12.0001C20.2658 11.9715 19.6622 12.0658 19.0956 12.2773C18.5289 12.4888 18.0111 12.8131 17.5735 13.2305C17.1358 13.6479 16.7874 14.1498 16.5494 14.7058C16.3113 15.2618 16.1886 15.8603 16.1886 16.4651C16.1886 17.0699 16.3113 17.6684 16.5494 18.2244C16.7874 18.7804 17.1358 19.2823 17.5735 19.6997C18.0111 20.1172 18.5289 20.4415 19.0956 20.6529C19.6622 20.8644 20.2658 20.9587 20.87 20.9301V20.9201Z" fill="#4A93B3"/>
<path d="M29.85 4.13981L24.13 13.9998C23.9969 14.1951 23.9205 14.4235 23.9093 14.6596C23.898 14.8957 23.9524 15.1303 24.0663 15.3374C24.1802 15.5445 24.3492 15.716 24.5546 15.8329C24.76 15.9498 24.9938 16.0076 25.23 15.9998H36.68C36.9162 16.0076 37.15 15.9498 37.3554 15.8329C37.5608 15.716 37.7298 15.5445 37.8437 15.3374C37.9576 15.1303 38.012 14.8957 38.0007 14.6596C37.9895 14.4235 37.9131 14.1951 37.78 13.9998L32.06 4.13981C31.9472 3.94687 31.7858 3.78682 31.592 3.6756C31.3981 3.56438 31.1785 3.50586 30.955 3.50586C30.7315 3.50586 30.5119 3.56438 30.318 3.6756C30.1242 3.78682 29.9628 3.94687 29.85 4.13981Z" fill="#4A93B3"/>
</svg>
