<svg width="32" height="32" viewBox="0 0 32 32" fill="none" xmlns="http://www.w3.org/2000/svg">
<g clip-path="url(#clip0)">
<path fill-rule="evenodd" clip-rule="evenodd" d="M3 3.5C3 3.10218 2.84196 2.72064 2.56066 2.43934C2.27936 2.15804 1.89782 2 1.5 2C1.10218 2 0.720644 2.15804 0.43934 2.43934C0.158035 2.72064 0 3.10218 0 3.5L0 28.5C0 29.328 0.672 30 1.5 30H30.5C30.8978 30 31.2794 29.842 31.5607 29.5607C31.842 29.2794 32 28.8978 32 28.5C32 28.1022 31.842 27.7206 31.5607 27.4393C31.2794 27.158 30.8978 27 30.5 27H3V3.5ZM31.56 8.56C31.825 8.27565 31.9692 7.89956 31.9624 7.51095C31.9555 7.12235 31.7981 6.75158 31.5232 6.47676C31.2484 6.20193 30.8776 6.04451 30.489 6.03765C30.1004 6.03079 29.7243 6.17504 29.44 6.44L20 15.88L15.06 10.94C14.7787 10.6591 14.3975 10.5013 14 10.5013C13.6025 10.5013 13.2213 10.6591 12.94 10.94L6.44 17.44C6.17504 17.7243 6.03079 18.1004 6.03765 18.489C6.04451 18.8776 6.20193 19.2484 6.47676 19.5232C6.75158 19.7981 7.12235 19.9555 7.51095 19.9624C7.89956 19.9692 8.27565 19.825 8.56 19.56L14 14.12L18.94 19.06C19.2213 19.3409 19.6025 19.4987 20 19.4987C20.3975 19.4987 20.7787 19.3409 21.06 19.06L31.56 8.56Z" fill="#4A93B3"/>
</g>
<defs>
<clipPath id="clip0">
<rect width="32" height="32" fill="white"/>
</clipPath>
</defs>
</svg>
