<svg width="42" height="42" viewBox="0 0 42 42" fill="none" xmlns="http://www.w3.org/2000/svg">
<path d="M18.7498 34.5C11.7081 34.5 5.99976 28.4558 5.99976 21C5.99976 13.5442 11.7081 7.5 18.7498 7.5C25.7914 7.5 31.4998 13.5442 31.4998 21C31.4998 28.4558 25.7914 34.5 18.7498 34.5Z" stroke="#4A93B3" stroke-width="3" stroke-linecap="round" stroke-linejoin="round"/>
<path d="M22.4998 16.2C21.5451 15.4258 20.3539 15.0023 19.1248 15C16.0183 15 13.4998 17.685 13.4998 21C13.4998 24.315 16.0183 27 19.1248 27C20.3908 27 21.5593 26.553 22.4998 25.8" stroke="#4A93B3" stroke-width="3" stroke-linecap="round" stroke-linejoin="round"/>
<path d="M19.4999 7.5C25.0004 7.5 35.9999 8.85 35.9999 21C35.9999 33.15 25.0004 34.5 19.4999 34.5" stroke="#4A93B3" stroke-width="3"/>
</svg>
