<svg width="42" height="42" viewBox="0 0 42 42" fill="none" xmlns="http://www.w3.org/2000/svg">
<path d="M7.875 14.9663C7.875 18.4576 10.5087 21.0913 14 21.0913C17.4913 21.0913 20.125 18.4576 20.125 14.9663C20.125 11.4751 17.4913 8.84131 14 8.84131C10.5087 8.84131 7.875 11.4751 7.875 14.9663ZM33.25 14.0003H29.75V19.2503H24.5V22.7503H29.75V28.0003H33.25V22.7503H38.5V19.2503H33.25V14.0003ZM7 33.2503H24.5V31.5003C24.5 26.6756 20.5747 22.7503 15.75 22.7503H12.25C7.42525 22.7503 3.5 26.6756 3.5 31.5003V33.2503H7Z" fill="#4A93B3"/>
</svg>
