<svg width="121" height="122" viewBox="0 0 141 142" fill="none" xmlns="http://www.w3.org/2000/svg">
<rect width="121" height="121" rx="6" fill="white"/>
<rect x="0.5" y="0.5" width="140" height="140" rx="5.5" stroke="#2D47AF" stroke-opacity="0.15"/>
<path d="M48.25 35C45.9294 35 43.7038 35.9219 42.0628 37.5628C40.4219 39.2038 39.5 41.4294 39.5 43.75V96.25C39.5 98.5706 40.4219 100.796 42.0628 102.437C43.7038 104.078 45.9294 105 48.25 105H73.835C72.3345 103.438 71.0641 101.67 70.062 99.75H48.25C47.3217 99.75 46.4315 99.3813 45.7751 98.7249C45.1187 98.0685 44.75 97.1783 44.75 96.25H68.5955C67.3033 92.2617 67.1383 87.9939 68.1187 83.9178C69.0991 79.8416 71.1867 76.1157 74.1512 73.1512C77.1157 70.1867 80.8416 68.0991 84.9178 67.1187C88.9939 66.1383 93.2617 66.3033 97.25 67.5955V43.75C97.25 41.4294 96.3281 39.2038 94.6872 37.5628C93.0462 35.9219 90.8206 35 88.5 35H48.25ZM53.5 45.5H81.5C82.4282 45.5 83.3185 45.8687 83.9749 46.5251C84.6312 47.1815 85 48.0717 85 49V52.5C85 53.4283 84.6312 54.3185 83.9749 54.9749C83.3185 55.6313 82.4282 56 81.5 56H53.5C52.5717 56 51.6815 55.6313 51.0251 54.9749C50.3687 54.3185 50 53.4283 50 52.5V49C50 48.0717 50.3687 47.1815 51.0251 46.5251C51.6815 45.8687 52.5717 45.5 53.5 45.5ZM109.5 89.25C109.5 84.1446 107.472 79.2483 103.862 75.6382C100.252 72.0281 95.3554 70 90.25 70C85.1446 70 80.2483 72.0281 76.6382 75.6382C73.0281 79.2483 71 84.1446 71 89.25C71 94.3554 73.0281 99.2517 76.6382 102.862C80.2483 106.472 85.1446 108.5 90.25 108.5C95.3554 108.5 100.252 106.472 103.862 102.862C107.472 99.2517 109.5 94.3554 109.5 89.25ZM92 91L92.0035 99.7605C92.0035 100.225 91.8191 100.67 91.4909 100.998C91.1627 101.326 90.7176 101.51 90.2535 101.51C89.7894 101.51 89.3442 101.326 89.016 100.998C88.6879 100.67 88.5035 100.225 88.5035 99.7605V91H79.736C79.2719 91 78.8267 90.8156 78.4986 90.4874C78.1704 90.1592 77.986 89.7141 77.986 89.25C77.986 88.7859 78.1704 88.3408 78.4986 88.0126C78.8267 87.6844 79.2719 87.5 79.736 87.5H88.5V78.75C88.5 78.2859 88.6844 77.8408 89.0126 77.5126C89.3407 77.1844 89.7859 77 90.25 77C90.7141 77 91.1592 77.1844 91.4874 77.5126C91.8156 77.8408 92 78.2859 92 78.75V87.5H100.76C101.225 87.5 101.67 87.6844 101.998 88.0126C102.326 88.3408 102.51 88.7859 102.51 89.25C102.51 89.7141 102.326 90.1592 101.998 90.4874C101.67 90.8156 101.225 91 100.76 91H92.0035H92Z" fill="#4A93B3"/>
</svg>
