<svg width="40" height="40" viewBox="0 0 40 40" fill="none" xmlns="http://www.w3.org/2000/svg">
<rect x="40" y="40" width="40" height="40" transform="rotate(-180 40 40)" fill="#F2F2F2"/>
<path d="M23.1098 28.3609C22.8853 28.36 22.6633 28.3119 22.4571 28.2194C22.2509 28.127 22.0647 27.9921 21.9098 27.8229L15.4764 20.8814C15.1711 20.557 15 20.1209 15 19.6666C15 19.2124 15.1711 18.7763 15.4764 18.4519L22.1432 11.5104C22.2986 11.3486 22.483 11.2202 22.6861 11.1326C22.8891 11.0451 23.1067 11 23.3265 11C23.5463 11 23.7639 11.0451 23.9669 11.1326C24.17 11.2202 24.3544 11.3486 24.5098 11.5104C24.6652 11.6722 24.7885 11.8643 24.8726 12.0757C24.9567 12.2871 25 12.5137 25 12.7425C25 12.9713 24.9567 13.1979 24.8726 13.4093C24.7885 13.6207 24.6652 13.8128 24.5098 13.9746L19.0098 19.684L24.3098 25.4108C24.6203 25.7359 24.7945 26.1757 24.7945 26.6342C24.7945 27.0927 24.6203 27.5325 24.3098 27.8576C24.1521 28.0206 23.9647 28.149 23.7586 28.2354C23.5526 28.3219 23.332 28.3645 23.1098 28.3609Z" fill="#4A93B3"/>
</svg>
