<svg width="22" height="22" viewBox="0 0 22 22" fill="none" xmlns="http://www.w3.org/2000/svg">
<path d="M19.9375 12.0315H3.4375V4.2971C3.4367 4.00583 3.49369 3.71729 3.60515 3.44819C3.71662 3.17909 3.88036 2.93478 4.08689 2.72938L4.10407 2.7122C4.42774 2.389 4.8433 2.17362 5.29397 2.09547C5.74464 2.01731 6.20846 2.0802 6.62204 2.27555C6.23144 2.92497 6.06909 3.68631 6.16079 4.43858C6.25248 5.19086 6.59297 5.89091 7.12813 6.42749L7.59868 6.89804L6.73256 7.7642L7.70477 8.73641L8.57089 7.87029L13.37 3.07124L14.2361 2.20512L13.2639 1.23287L12.3977 2.09899L11.9272 1.62844C11.3638 1.06663 10.6212 0.720319 9.82866 0.649839C9.03617 0.57936 8.24406 0.789185 7.59039 1.24275C6.90109 0.80744 6.08423 0.619513 5.27401 0.709842C4.46378 0.800171 3.70837 1.16338 3.13186 1.73981L3.11468 1.757C2.78005 2.08979 2.51476 2.48565 2.33415 2.92166C2.15355 3.35767 2.06122 3.82517 2.0625 4.2971V12.0315H0.6875V13.4065H2.0625V14.7256C2.06247 14.8365 2.08035 14.9466 2.11544 15.0517L3.39453 18.8888C3.46279 19.0942 3.59405 19.2729 3.76965 19.3995C3.94526 19.5261 4.15628 19.5942 4.37276 19.594H4.92705L4.42578 21.3127H5.85806L6.35938 19.594H15.3012L15.8168 21.3127H17.252L16.7363 19.594H17.6271C17.8436 19.5942 18.0546 19.5262 18.2303 19.3996C18.4059 19.273 18.5372 19.0943 18.6055 18.8888L19.8845 15.0517C19.9196 14.9466 19.9375 14.8365 19.9375 14.7256V13.4065H21.3125V12.0315H19.9375ZM8.10047 2.60069C8.47928 2.22271 8.99256 2.01042 9.5277 2.01042C10.0628 2.01042 10.5761 2.22271 10.9549 2.60069L11.4254 3.07124L8.57102 5.92561L8.10047 5.45515C7.7225 5.07633 7.51024 4.56305 7.51024 4.02792C7.51024 3.49279 7.7225 2.97951 8.10047 2.60069ZM18.5625 14.6698L17.3795 18.219H4.62052L3.4375 14.6698V13.4065H18.5625V14.6698Z" fill="#333333"/>
</svg>
