<svg width="20" height="20" viewBox="0 0 20 20" fill="none" xmlns="http://www.w3.org/2000/svg">
<path d="M17.2223 4.44434H12.7778V5.55545H17.2223V17.2221H12.7778V18.3332H18.3334V5.55545C18.3334 5.26076 18.2163 4.97815 18.008 4.76977C17.7996 4.5614 17.517 4.44434 17.2223 4.44434Z" fill="#4F4F4F"/>
<path d="M11.0444 1.66675H3.39995C3.08758 1.66675 2.78801 1.79083 2.56713 2.01171C2.34625 2.23259 2.22217 2.53216 2.22217 2.84453V18.3334H12.2222V2.84453C12.2222 2.53216 12.0981 2.23259 11.8772 2.01171C11.6563 1.79083 11.3568 1.66675 11.0444 1.66675ZM11.1111 17.2223H9.44439V15.5556H4.99995V17.2223H3.33328V2.84453C3.33328 2.83577 3.335 2.8271 3.33835 2.81901C3.3417 2.81093 3.34661 2.80358 3.35281 2.79739C3.359 2.79119 3.36635 2.78628 3.37443 2.78293C3.38252 2.77958 3.39119 2.77786 3.39995 2.77786H11.0444C11.0531 2.77786 11.0618 2.77958 11.0699 2.78293C11.078 2.78628 11.0853 2.79119 11.0915 2.79739C11.0977 2.80358 11.1026 2.81093 11.106 2.81901C11.1093 2.8271 11.1111 2.83577 11.1111 2.84453V17.2223Z" fill="#4F4F4F"/>
<path d="M4.44446 4.44434H5.55557V5.55545H4.44446V4.44434Z" fill="#4F4F4F"/>
<path d="M6.66663 4.44434H7.77774V5.55545H6.66663V4.44434Z" fill="#4F4F4F"/>
<path d="M8.88892 4.44434H10V5.55545H8.88892V4.44434Z" fill="#4F4F4F"/>
<path d="M4.44446 7.22217H5.55557V8.33328H4.44446V7.22217Z" fill="#4F4F4F"/>
<path d="M6.66663 7.22217H7.77774V8.33328H6.66663V7.22217Z" fill="#4F4F4F"/>
<path d="M8.88892 7.22217H10V8.33328H8.88892V7.22217Z" fill="#4F4F4F"/>
<path d="M4.44446 10H5.55557V11.1111H4.44446V10Z" fill="#4F4F4F"/>
<path d="M6.66663 10H7.77774V11.1111H6.66663V10Z" fill="#4F4F4F"/>
<path d="M8.88892 10H10V11.1111H8.88892V10Z" fill="#4F4F4F"/>
<path d="M4.44446 12.7778H5.55557V13.8889H4.44446V12.7778Z" fill="#4F4F4F"/>
<path d="M6.66663 12.7778H7.77774V13.8889H6.66663V12.7778Z" fill="#4F4F4F"/>
<path d="M8.88892 12.7778H10V13.8889H8.88892V12.7778Z" fill="#4F4F4F"/>
<path d="M12.7778 7.22217H13.8889V8.33328H12.7778V7.22217Z" fill="#4F4F4F"/>
<path d="M15 7.22217H16.1111V8.33328H15V7.22217Z" fill="#4F4F4F"/>
<path d="M12.7778 10H13.8889V11.1111H12.7778V10Z" fill="#4F4F4F"/>
<path d="M15 10H16.1111V11.1111H15V10Z" fill="#4F4F4F"/>
<path d="M12.7778 12.7778H13.8889V13.8889H12.7778V12.7778Z" fill="#4F4F4F"/>
<path d="M15 12.7778H16.1111V13.8889H15V12.7778Z" fill="#4F4F4F"/>
</svg>
