<svg width="44" height="44" viewBox="0 0 44 44" fill="none" xmlns="http://www.w3.org/2000/svg">
<rect width="44" height="44" fill="black" fill-opacity="0.2"/>
<path d="M10.3335 14.9999C10.3335 13.7622 10.8252 12.5753 11.7003 11.7001C12.5755 10.8249 13.7625 10.3333 15.0002 10.3333H29.0002C30.2378 10.3333 31.4248 10.8249 32.3 11.7001C33.1752 12.5753 33.6668 13.7622 33.6668 14.9999V20.8333H10.3335V14.9999Z" stroke="white" stroke-width="2" stroke-linecap="round" stroke-linejoin="round"/>
<path d="M29.5835 27.25H26.0835" stroke="white" stroke-width="2" stroke-linecap="round"/>
<path d="M22 20.8333H33.6667V28.9999C33.6667 30.2376 33.175 31.4246 32.2998 32.2998C31.4247 33.1749 30.2377 33.6666 29 33.6666H22V20.8333Z" stroke="white" stroke-width="2" stroke-linecap="round" stroke-linejoin="round"/>
<path d="M22.0002 20.8333H10.3335V28.9999C10.3335 30.2376 10.8252 31.4246 11.7003 32.2998C12.5755 33.1749 13.7625 33.6666 15.0002 33.6666H22.0002V20.8333Z" stroke="white" stroke-width="2" stroke-linecap="round" stroke-linejoin="round"/>
<path d="M16.167 27.25L14.417 25.5M14.417 29L16.167 27.25L14.417 29ZM16.167 27.25L17.917 25.5L16.167 27.25ZM16.167 27.25L17.917 29L16.167 27.25Z" stroke="white" stroke-linecap="round"/>
</svg>
