<svg width="20" height="20" viewBox="0 0 30 30" fill="none" xmlns="http://www.w3.org/2000/svg">
<path d="M15 1.875C12.4041 1.875 9.86654 2.64477 7.70815 4.08696C5.54975 5.52916 3.86749 7.579 2.87409 9.97728C1.88069 12.3756 1.62077 15.0146 2.1272 17.5606C2.63363 20.1066 3.88367 22.4452 5.71923 24.2808C7.55479 26.1163 9.89345 27.3664 12.4394 27.8728C14.9854 28.3792 17.6244 28.1193 20.0227 27.1259C22.421 26.1325 24.4709 24.4503 25.913 22.2919C27.3552 20.1335 28.125 17.5959 28.125 15C28.125 11.519 26.7422 8.18064 24.2808 5.71922C21.8194 3.25781 18.481 1.875 15 1.875ZM15 7.5C15.2781 7.5 15.55 7.58247 15.7813 7.737C16.0125 7.89152 16.1928 8.11114 16.2992 8.3681C16.4056 8.62506 16.4335 8.90781 16.3792 9.1806C16.325 9.45338 16.191 9.70395 15.9944 9.90062C15.7977 10.0973 15.5471 10.2312 15.2744 10.2855C15.0016 10.3397 14.7188 10.3119 14.4619 10.2055C14.2049 10.099 13.9853 9.91878 13.8308 9.68752C13.6762 9.45626 13.5938 9.18438 13.5938 8.90625C13.5938 8.53329 13.7419 8.1756 14.0056 7.91188C14.2694 7.64816 14.627 7.5 15 7.5ZM18.75 22.6172H11.25V20.5078H13.9453V15.1172H12.1875V13.0078H16.0547V20.5078H18.75V22.6172Z" fill="#4A93B3"/>
</svg>
