<svg width="58" height="58" viewBox="0 0 58 58" fill="none" xmlns="http://www.w3.org/2000/svg">
<g filter="url(#filter0_d)">
<circle cx="29" cy="25" r="25" fill="white"/>
</g>
<path d="M38.5349 14.4811C38.3875 14.3334 38.2125 14.2163 38.0198 14.1363C37.8271 14.0564 37.6205 14.0153 37.4119 14.0153C37.2033 14.0153 36.9967 14.0564 36.804 14.1363C36.6114 14.2163 36.4363 14.3334 36.289 14.4811L28.5 22.2541L20.711 14.4651C20.5636 14.3177 20.3885 14.2007 20.1958 14.1209C20.0031 14.0411 19.7966 14 19.5881 14C19.3795 14 19.173 14.0411 18.9804 14.1209C18.7877 14.2007 18.6126 14.3177 18.4651 14.4651C18.3177 14.6126 18.2007 14.7877 18.1209 14.9804C18.0411 15.173 18 15.3795 18 15.5881C18 15.7966 18.0411 16.0031 18.1209 16.1958C18.2007 16.3885 18.3177 16.5636 18.4651 16.711L26.2541 24.5L18.4651 32.289C18.3177 32.4364 18.2007 32.6115 18.1209 32.8042C18.0411 32.9969 18 33.2034 18 33.4119C18 33.6205 18.0411 33.827 18.1209 34.0196C18.2007 34.2123 18.3177 34.3874 18.4651 34.5349C18.6126 34.6823 18.7877 34.7993 18.9804 34.8791C19.173 34.9589 19.3795 35 19.5881 35C19.7966 35 20.0031 34.9589 20.1958 34.8791C20.3885 34.7993 20.5636 34.6823 20.711 34.5349L28.5 26.7459L36.289 34.5349C36.4364 34.6823 36.6115 34.7993 36.8042 34.8791C36.9969 34.9589 37.2034 35 37.4119 35C37.6205 35 37.827 34.9589 38.0196 34.8791C38.2123 34.7993 38.3874 34.6823 38.5349 34.5349C38.6823 34.3874 38.7993 34.2123 38.8791 34.0196C38.9589 33.827 39 33.6205 39 33.4119C39 33.2034 38.9589 32.9969 38.8791 32.8042C38.7993 32.6115 38.6823 32.4364 38.5349 32.289L30.7459 24.5L38.5349 16.711C39.1401 16.1058 39.1401 15.0863 38.5349 14.4811Z" fill="#4A93B3"/>
<defs>
<filter id="filter0_d" x="0" y="0" width="58" height="58" filterUnits="userSpaceOnUse" color-interpolation-filters="sRGB">
<feFlood flood-opacity="0" result="BackgroundImageFix"/>
<feColorMatrix in="SourceAlpha" type="matrix" values="0 0 0 0 0 0 0 0 0 0 0 0 0 0 0 0 0 0 127 0"/>
<feOffset dy="4"/>
<feGaussianBlur stdDeviation="2"/>
<feColorMatrix type="matrix" values="0 0 0 0 0 0 0 0 0 0 0 0 0 0 0 0 0 0 0.25 0"/>
<feBlend mode="normal" in2="BackgroundImageFix" result="effect1_dropShadow"/>
<feBlend mode="normal" in="SourceGraphic" in2="effect1_dropShadow" result="shape"/>
</filter>
</defs>
</svg>
