<svg xmlns="http://www.w3.org/2000/svg" viewBox="0 0 936.78 937.03"><defs><style>.cls-1{fill:#049dde;}.cls-2{fill:#029ddf;}</style></defs><title>Asset 1</title><g id="Layer_2" data-name="Layer 2"><g id="Layer_1-2" data-name="Layer 1"><path class="cls-1" d="M424.65,0h87.43c1.27,2.74,3.94,2.83,6.31,3C538.93,4.5,559.1,8.4,579,13.26c69.93,17,133.23,48.09,188.11,94.57C871.32,196,928.15,308.89,936,445.21c5,87.55-13.42,171-56.63,247.36C802.74,828,686.76,908.5,532.64,932,460,943.1,388.52,935.56,318.82,912c-88.19-29.78-161-81.49-218.59-154.41q-76.06-96.36-94.7-218c-1.34-8.69-.46-18-5.53-25.93V427.77c2.87-4.37,2.45-9.57,3.1-14.35,3.69-26.78,8.52-53.34,16.5-79.18C53.37,224.78,118,138.18,213.82,75.42,276.49,34.37,345.35,9.94,420.19,3.06,422.3,2.87,424.47,2.94,424.65,0Zm43.73,880.65c227.5.11,412.19-184.45,412.27-412S696.52,56.32,469.08,56.08C241,55.84,56.49,239.86,56.07,468,55.65,695.68,240.36,880.54,468.38,880.65Z"/><path class="cls-2" d="M228.36,310.91c-.26-20.48,3.1-43.83,19.13-63.51,13.35-16.39,31.2-27.05,49-37.67,4.27-2.54,5.2,1.38,6.7,4Q339,275.65,374.81,337.58c3.77,6.5,7.61,13,11.43,19.43,1.61,2.73,2.11,5-1.13,7.24-17.07,11.82-22.91,29.41-24.34,49-2,27.62,5.33,53.51,15.19,78.88a259.64,259.64,0,0,0,49.3,80.36c17.27,19.16,37,35.49,63.43,41.26a55.39,55.39,0,0,0,35.74-3.68c4.31-2,6.62-2.21,9.25,2.36q41.34,72,83.1,143.74c2.45,4.21,1,6-2.41,7.87-16.44,8.94-33,17.44-51.64,21.1-25.27,5-48-2.48-69-15.36-43-26.27-77.79-61.7-109.19-100.55A793.83,793.83,0,0,1,250.62,427.59C238.21,391.64,229.13,343.7,228.36,310.91Z"/><path class="cls-1" d="M415.87,359.59c-8.85.31-14.74-4.33-18.9-11.53q-40.46-70-80.8-140.12c-7.39-12.86-4.77-23.42,7.91-31.07q19.95-12,40.33-23.38c11.93-6.65,22.48-3.76,29.64,8.54q41.28,70.89,82.11,142.06c5.94,10.34,3.29,21.53-6.93,27.85-14.55,9-29.56,17.2-44.37,25.77C422.05,359.35,419,359.59,415.87,359.59Z"/><path class="cls-1" d="M645.33,755.84c-8.43,0-14.31-3-18-9.28q-42-72.3-83.68-144.73c-5.88-10.25-2.61-21.61,7.45-27.66,14-8.42,28.11-16.66,42.39-24.58,11.44-6.34,22.15-3.51,28.66,7.67Q663.65,628.51,704.75,700c6.31,11,3.24,22.2-7.73,28.8-14,8.41-28.29,16.31-42.38,24.57A16.36,16.36,0,0,1,645.33,755.84Z"/></g></g></svg>