<svg width="30" height="30" viewBox="0 0 30 30" fill="none" xmlns="http://www.w3.org/2000/svg">
<path d="M15.0001 0.599854C7.04563 0.599854 0.598633 7.04685 0.598633 14.9999C0.598436 16.8911 0.970807 18.7639 1.69448 20.5113C2.41815 22.2587 3.47895 23.8463 4.8163 25.1837C6.15364 26.521 7.74132 27.5818 9.48868 28.3055C11.236 29.0292 13.1088 29.4016 15.0001 29.4014C22.9516 29.4014 29.4001 22.9544 29.4001 14.9999C29.4001 7.04685 22.9516 0.599854 15.0001 0.599854ZM16.3441 5.79885C17.7481 5.79885 18.1606 6.61335 18.1606 7.54485C18.1606 8.70735 17.2306 9.78285 15.6421 9.78285C14.3131 9.78285 13.6801 9.11535 13.7191 8.00985C13.7191 7.07835 14.4976 5.79885 16.3441 5.79885ZM12.7471 23.6249C11.7871 23.6249 11.0866 23.0414 11.7571 20.4839L12.8566 15.9464C13.0471 15.2204 13.0786 14.9294 12.8566 14.9294C12.5701 14.9294 11.3236 15.4304 10.5886 15.9254L10.1101 15.1409C12.4426 13.1924 15.1246 12.0494 16.2721 12.0494C17.2321 12.0494 17.3911 13.1834 16.9126 14.9294L15.6526 19.6994C15.4291 20.5424 15.5251 20.8334 15.7486 20.8334C16.0366 20.8334 16.9786 20.4854 17.9056 19.7549L18.4486 20.4839C16.1791 22.7519 13.7056 23.6249 12.7471 23.6249Z" fill="#F2994A"/>
</svg>
