<svg width="28" height="28" viewBox="0 0 28 28" fill="none" xmlns="http://www.w3.org/2000/svg">
<path d="M24.9821 7.77783H3.01764C2.62984 7.77783 2.25791 7.93189 1.98369 8.20611C1.70947 8.48033 1.55542 8.85225 1.55542 9.24005V23.4267C1.55542 23.8145 1.70947 24.1864 1.98369 24.4607C2.25791 24.7349 2.62984 24.8889 3.01764 24.8889H24.9821C25.3699 24.8889 25.7418 24.7349 26.016 24.4607C26.2903 24.1864 26.4443 23.8145 26.4443 23.4267V9.24005C26.4443 8.85225 26.2903 8.48033 26.016 8.20611C25.7418 7.93189 25.3699 7.77783 24.9821 7.77783ZM24.8888 23.3334H3.11098V9.33339H24.8888V23.3334Z" fill="white"/>
<path d="M6.65804 15.1279C7.11953 15.1279 7.57066 14.991 7.95437 14.7346C8.33809 14.4782 8.63715 14.1138 8.81376 13.6874C8.99036 13.2611 9.03657 12.7919 8.94654 12.3393C8.85651 11.8867 8.63428 11.4709 8.30796 11.1446C7.98163 10.8183 7.56587 10.596 7.11325 10.506C6.66063 10.416 6.19147 10.4622 5.76511 10.6388C5.33875 10.8154 4.97433 11.1145 4.71794 11.4982C4.46155 11.8819 4.32471 12.333 4.32471 12.7945C4.32471 13.4134 4.57054 14.0068 5.00812 14.4444C5.44571 14.882 6.0392 15.1279 6.65804 15.1279ZM6.65804 11.5501C6.9054 11.5439 7.14899 11.6116 7.35769 11.7445C7.56639 11.8774 7.73072 12.0696 7.8297 12.2963C7.92867 12.5231 7.9578 12.7743 7.91335 13.0177C7.86891 13.2611 7.75291 13.4857 7.58017 13.6629C7.40744 13.84 7.18581 13.9617 6.9436 14.0123C6.70139 14.0629 6.4496 14.0401 6.22039 13.9469C5.99118 13.8537 5.79496 13.6943 5.65679 13.489C5.51862 13.2837 5.44478 13.042 5.44471 12.7945C5.44461 12.4698 5.57144 12.1579 5.79813 11.9254C6.02482 11.6929 6.33342 11.5582 6.65804 11.5501Z" fill="white"/>
<path d="M6.14474 21.7781L10.8114 17.1114L13.2847 19.5847L11.0914 21.7781H12.647L18.4492 15.9759L23.3336 20.8214V19.2659L18.8225 14.7781C18.7191 14.6755 18.5793 14.6179 18.4336 14.6179C18.2879 14.6179 18.1482 14.6755 18.0447 14.7781L14.0314 18.7914L11.177 15.9447C11.0735 15.8422 10.9337 15.7846 10.7881 15.7846C10.6424 15.7846 10.5026 15.8422 10.3992 15.9447L4.60474 21.7781H6.14474Z" fill="white"/>
<path d="M23.4421 2.3332C23.4421 2.12692 23.3601 1.92909 23.2142 1.78323C23.0684 1.63736 22.8706 1.55542 22.6643 1.55542H5.55317C5.34689 1.55542 5.14906 1.63736 5.0032 1.78323C4.85733 1.92909 4.77539 2.12692 4.77539 2.3332V3.11098H23.4421V2.3332Z" fill="white"/>
<path d="M24.9819 5.44453C24.9819 5.23825 24.8999 5.04042 24.7541 4.89455C24.6082 4.74869 24.4104 4.66675 24.2041 4.66675H3.98188C3.7756 4.66675 3.57777 4.74869 3.43191 4.89455C3.28605 5.04042 3.2041 5.23825 3.2041 5.44453V6.2223H24.9819V5.44453Z" fill="white"/>
<rect x="0.5" y="0.5" width="27" height="27" stroke="black"/>
</svg>
