<svg width="121" height="122" viewBox="0 0 141 142" fill="none" xmlns="http://www.w3.org/2000/svg">
<rect width="121" height="121" rx="6" fill="white"/>
<rect x="0.5" y="0.5" width="140" height="140" rx="5.5" stroke="#2D47AF" stroke-opacity="0.15"/>
<path d="M95.865 66.59L66.5 95.955V106H49C45.115 106 42 102.885 42 99V43C42 41.1435 42.7375 39.363 44.0503 38.0503C45.363 36.7375 47.1435 36 49 36H52.5V60.5L61.25 55.25L70 60.5V36H91C92.8565 36 94.637 36.7375 95.9497 38.0503C97.2625 39.363 98 41.1435 98 43V65.05C97.23 65.47 96.495 65.96 95.865 66.59ZM73.5 98.86V106H80.64L102.095 84.58L94.955 77.405L73.5 98.86ZM107.975 76.145L103.355 71.525C102.655 70.825 101.5 70.825 100.835 71.525L97.405 74.955L104.545 82.095L107.975 78.665C108.675 78 108.675 76.845 107.975 76.145Z" fill="#4A93B3"/>
</svg>
