<svg width="45" height="45" viewBox="0 0 45 45" fill="none" xmlns="http://www.w3.org/2000/svg">
<rect x="0.5" y="0.5" width="44" height="44" fill="black" fill-opacity="0.2" stroke="white"/>
<path d="M36.5001 29.75V16.25C36.5001 15.005 35.4951 14 34.2501 14H13.2351C11.9901 14 10.9851 15.005 10.9851 16.25V29.75C10.9851 30.995 11.9901 32 13.2351 32H34.2501C35.4951 32 36.5001 30.995 36.5001 29.75ZM34.5351 16.085C35.0301 16.58 34.7601 17.09 34.4901 17.345L28.4001 22.925L34.2501 29.015C34.4301 29.225 34.5501 29.555 34.3401 29.78C34.1451 30.02 33.6951 30.005 33.5001 29.855L26.9451 24.26L23.7351 27.185L20.5401 24.26L13.9851 29.855C13.7901 30.005 13.3401 30.02 13.1451 29.78C12.9351 29.555 13.0551 29.225 13.2351 29.015L19.0851 22.925L12.9951 17.345C12.7251 17.09 12.4551 16.58 12.9501 16.085C13.4451 15.59 13.9551 15.83 14.3751 16.19L23.7351 23.75L33.1101 16.19C33.5301 15.83 34.0401 15.59 34.5351 16.085Z" fill="white"/>
</svg>
