<svg width="45" height="45" viewBox="0 0 45 45" fill="none" xmlns="http://www.w3.org/2000/svg">
<rect x="0.5" y="0.5" width="44" height="44" fill="black" fill-opacity="0.2" stroke="white"/>
<path d="M34.9375 8.9375H9.0625C8.44023 8.9375 7.9375 9.44023 7.9375 10.0625V35.9375C7.9375 36.5598 8.44023 37.0625 9.0625 37.0625H34.9375C35.5598 37.0625 36.0625 36.5598 36.0625 35.9375V10.0625C36.0625 9.44023 35.5598 8.9375 34.9375 8.9375ZM31.6891 17.1465H29.4426C27.6812 17.1465 27.3402 17.9832 27.3402 19.2137V21.9242H31.5449L30.9965 26.1676H27.3402V37.0625H22.9563V26.1711H19.2895V21.9242H22.9563V18.7953C22.9563 15.1637 25.1746 13.1844 28.416 13.1844C29.9699 13.1844 31.3023 13.3004 31.6926 13.3531V17.1465H31.6891Z" fill="white"/>
</svg>
