<svg width="20" height="20" viewBox="0 0 20 20" fill="none" xmlns="http://www.w3.org/2000/svg">
<path d="M1.25159 15.938H2.18909V9.02696C2.18928 8.80929 2.23485 8.59405 2.32289 8.39498C2.41093 8.19591 2.53951 8.01738 2.70041 7.87079L8.95096 2.18837C9.23796 1.92556 9.61299 1.77979 10.0021 1.77979C10.3913 1.77979 10.7663 1.92556 11.0533 2.18837L17.3027 7.87079C17.4636 8.01736 17.5922 8.19588 17.6803 8.39496C17.7683 8.59403 17.8139 8.80928 17.8141 9.02696V15.938H18.7516C19.0002 15.938 19.2387 16.0367 19.4145 16.2126C19.5903 16.3884 19.6891 16.6268 19.6891 16.8755C19.6891 17.1241 19.5903 17.3626 19.4145 17.5384C19.2387 17.7142 19.0002 17.813 18.7516 17.813H1.25159C1.00295 17.813 0.764488 17.7142 0.588673 17.5384C0.412859 17.3626 0.314087 17.1241 0.314087 16.8755C0.314087 16.6268 0.412859 16.3884 0.588673 16.2126C0.764488 16.0367 1.00295 15.938 1.25159 15.938ZM15.9391 9.16516L10.002 3.76688L4.06409 9.16516V15.938H7.18948V11.8749C7.18948 11.6262 7.28825 11.3878 7.46406 11.2119C7.63988 11.0361 7.87834 10.9374 8.12698 10.9374H11.877C12.1256 10.9374 12.3641 11.0361 12.5399 11.2119C12.7157 11.3878 12.8145 11.6262 12.8145 11.8749V15.938H15.9391V9.16516ZM9.06448 15.938H10.9395V12.8124H9.06448V15.938Z" fill="#4F4F4F"/>
</svg>
