<svg width="20" height="20" viewBox="0 0 30 30" fill="none" xmlns="http://www.w3.org/2000/svg">
<circle cx="15" cy="15" r="14" fill="#EB5757" stroke="white" stroke-width="2"/>
<path d="M12.6316 14.9999L8.04641 10.4148C7.39235 9.7607 7.39235 8.70027 8.04641 8.04621C8.70051 7.39215 9.76087 7.39215 10.415 8.04621L15.0001 12.6313L19.5852 8.04621C20.2393 7.39215 21.2997 7.39215 21.9538 8.04621C22.6079 8.70027 22.6079 9.7607 21.9538 10.4148L17.3687 14.9999L21.9538 19.585C22.6079 20.2391 22.6079 21.2995 21.9538 21.9536C21.6268 22.2806 21.1981 22.4441 20.7695 22.4441C20.3409 22.4441 19.9123 22.2806 19.5853 21.9536L15.0001 17.3684L10.415 21.9536C10.0879 22.2806 9.65932 22.4441 9.23071 22.4441C8.80209 22.4441 8.37348 22.2806 8.04645 21.9536C7.39239 21.2995 7.39239 20.2391 8.04645 19.585L12.6316 14.9999Z" fill="white"/>
</svg>
