<svg width="26" height="26" viewBox="0 0 26 26" fill="none" xmlns="http://www.w3.org/2000/svg">
<path fill-rule="evenodd" clip-rule="evenodd" d="M16.4009 10.2798C16.4009 10.8485 15.9261 11.3068 15.3384 11.3068H1.68277C1.09353 11.3068 0.618652 10.8485 0.618652 10.2798V1.02863C0.618652 0.459875 1.09353 0 1.68277 0H15.3384C15.9261 0 16.4009 0.459875 16.4009 1.02863V10.2798Z" fill="white"/>
<path fill-rule="evenodd" clip-rule="evenodd" d="M26.0001 24.9161C25.9997 25.0589 25.9718 25.2002 25.918 25.3319C25.8642 25.4636 25.7856 25.5832 25.6866 25.6839C25.5877 25.7845 25.4703 25.8643 25.3412 25.9185C25.2122 25.9727 25.0739 26.0004 24.9344 26H11.2517C11.1121 26.0006 10.9738 25.9731 10.8446 25.9189C10.7155 25.8648 10.598 25.7851 10.499 25.6844C10.4 25.5837 10.3214 25.464 10.2677 25.3322C10.214 25.2003 10.1862 25.059 10.186 24.9161V14.0823C10.186 13.4843 10.6625 13 11.2517 13H24.9344C25.522 13 26.0001 13.4843 26.0001 14.0823V24.9161Z" fill="white"/>
<path fill-rule="evenodd" clip-rule="evenodd" d="M8.49239 24.9161C8.49239 25.5158 8.01592 26 7.43145 26H1.6868C1.54721 26.0006 1.40886 25.9731 1.2797 25.9189C1.15053 25.8648 1.03308 25.7851 0.934081 25.6844C0.835079 25.5837 0.756472 25.464 0.702763 25.3322C0.649055 25.2003 0.621301 25.059 0.621094 24.9161V14.0823C0.621094 13.4843 1.09598 13 1.6868 13H7.43145C8.01592 13 8.49239 13.4843 8.49239 14.0823V24.9161Z" fill="white"/>
<path fill-rule="evenodd" clip-rule="evenodd" d="M26.0003 10.3106C26.0003 10.881 25.4858 11.3409 24.8473 11.3409H19.244C18.6119 11.3409 18.0957 10.881 18.0957 10.3106V1.03187C18.0957 0.459875 18.6103 0 19.244 0H24.8473C25.4842 0 26.0003 0.459875 26.0003 1.03187V10.3106Z" fill="white"/>
</svg>
