<svg width="24" height="42" viewBox="0 0 24 42" fill="none" xmlns="http://www.w3.org/2000/svg">
<path d="M19.4718 0.500452L19.4718 0.50049L19.4656 0.500517C18.9977 0.50239 18.5342 0.60343 18.1029 0.79835C17.6715 0.993296 17.2803 1.27849 16.9537 1.63814L16.9516 1.64039L1.5115 18.4333L1.51152 18.4333L1.50886 18.4362C0.864638 19.126 0.499998 20.0582 0.499998 21.0337C0.499998 22.0083 0.864008 22.9397 1.50719 23.6294C1.50774 23.6299 1.5083 23.6305 1.50886 23.6311L17.5056 40.4204C17.8333 40.7644 18.221 41.0358 18.6459 41.2206C19.0708 41.4053 19.5253 41.5 19.9836 41.5C20.4419 41.5 20.8964 41.4053 21.3213 41.2206L21.5197 41.6769L21.3213 41.2206C21.7462 41.0358 22.1339 40.7644 22.4616 40.4204C22.7894 40.0764 23.0506 39.6668 23.2292 39.2142C23.4078 38.7616 23.5 38.2758 23.5 37.7846C23.5 37.2934 23.4078 36.8076 23.2292 36.355C23.0506 35.9024 22.7894 35.4927 22.4616 35.1488L9.26204 21.3371L8.93844 20.9985L9.2552 20.6535L21.9753 6.79935L21.9753 6.79931L21.9806 6.79368C22.6354 6.10238 23.0068 5.16233 23.0068 4.17776C23.0068 3.19369 22.6357 2.25411 21.9816 1.56291C21.6495 1.21748 21.2564 0.946489 20.8261 0.764559C20.3952 0.582399 19.9348 0.492834 19.4718 0.500452Z" fill="#4A93B3" stroke="black"/>
</svg>
