<svg width="20" height="20" viewBox="0 0 20 20" fill="none" xmlns="http://www.w3.org/2000/svg">
<path d="M9.99996 14.1667L10.8333 12.5001V8.21508C12.2675 7.84258 13.3333 6.54841 13.3333 5.00008C13.3333 3.16175 11.8383 1.66675 9.99996 1.66675C8.16163 1.66675 6.66663 3.16175 6.66663 5.00008C6.66663 6.54841 7.73246 7.84258 9.16663 8.21508V12.5001L9.99996 14.1667ZM8.33329 5.00008C8.33329 4.08091 9.08079 3.33341 9.99996 3.33341C10.9191 3.33341 11.6666 4.08091 11.6666 5.00008C11.6666 5.91925 10.9191 6.66675 9.99996 6.66675C9.08079 6.66675 8.33329 5.91925 8.33329 5.00008Z" fill="#4F4F4F"/>
<path d="M13.5558 8.80235L13.1116 10.409C15.2708 11.0057 16.6666 12.1532 16.6666 13.3332C16.6666 14.9098 13.9291 16.6665 9.99996 16.6665C6.07079 16.6665 3.33329 14.9098 3.33329 13.3332C3.33329 12.1532 4.72913 11.0057 6.88913 10.4082L6.44496 8.80151C3.49746 9.61651 1.66663 11.3523 1.66663 13.3332C1.66663 16.1365 5.32746 18.3332 9.99996 18.3332C14.6725 18.3332 18.3333 16.1365 18.3333 13.3332C18.3333 11.3523 16.5025 9.61651 13.5558 8.80235Z" fill="#4F4F4F"/>
</svg>
