<svg width="20" height="20" viewBox="0 0 20 20" fill="none" xmlns="http://www.w3.org/2000/svg">
<path d="M10.0001 14.1667L10.8334 12.5001V8.21508C12.2676 7.84258 13.3334 6.54841 13.3334 5.00008C13.3334 3.16175 11.8384 1.66675 10.0001 1.66675C8.16175 1.66675 6.66675 3.16175 6.66675 5.00008C6.66675 6.54841 7.73258 7.84258 9.16675 8.21508V12.5001L10.0001 14.1667ZM8.33341 5.00008C8.33341 4.08091 9.08091 3.33341 10.0001 3.33341C10.9192 3.33341 11.6667 4.08091 11.6667 5.00008C11.6667 5.91925 10.9192 6.66675 10.0001 6.66675C9.08091 6.66675 8.33341 5.91925 8.33341 5.00008Z" fill="white"/>
<path d="M13.5559 8.80235L13.1117 10.409C15.2709 11.0057 16.6667 12.1532 16.6667 13.3332C16.6667 14.9098 13.9292 16.6665 10.0001 16.6665C6.07091 16.6665 3.33341 14.9098 3.33341 13.3332C3.33341 12.1532 4.72925 11.0057 6.88925 10.4082L6.44508 8.80151C3.49758 9.61651 1.66675 11.3523 1.66675 13.3332C1.66675 16.1365 5.32758 18.3332 10.0001 18.3332C14.6726 18.3332 18.3334 16.1365 18.3334 13.3332C18.3334 11.3523 16.5026 9.61651 13.5559 8.80235Z" fill="white"/>
<rect x="0.5" y="0.5" width="19" height="19" stroke="black"/>
</svg>
