<svg width="39" height="35" viewBox="0 0 49 44" fill="none" xmlns="http://www.w3.org/2000/svg">
<path d="M31.1088 29C33.4657 29 35.3786 30.8947 35.3786 33.2292L35.3762 35.554C35.6616 40.8465 31.6895 43.5217 24.5625 43.5217C17.4624 43.5217 13.4195 40.8876 13.4195 35.6458V33.2292C13.4195 30.8947 15.3324 29 17.6893 29H31.1088ZM4.26983 16.9167H14.9468C14.5211 18.5576 14.5375 20.2804 14.9943 21.913C15.4512 23.5457 16.3325 25.0311 17.5502 26.2208L17.9455 26.5857L17.6893 26.5833C16.2249 26.5828 14.8006 27.0568 13.6336 27.933C12.4667 28.8091 11.6211 30.0394 11.226 31.436L11.143 31.4384C4.04292 31.4384 0 28.8042 0 23.5625V21.1458C0 18.8113 1.91288 16.9167 4.26983 16.9167ZM44.5282 16.9167C46.8852 16.9167 48.7981 18.8113 48.7981 21.1458L48.7956 23.4707C49.0811 28.7632 45.1089 31.4384 37.982 31.4384L37.5696 31.4336C37.1945 30.1172 36.4193 28.9472 35.3494 28.0824C34.2795 27.2177 32.9667 26.7002 31.5894 26.6002L31.1088 26.5833L30.8526 26.5857C32.207 25.4074 33.2045 23.8798 33.734 22.173C34.2634 20.4662 34.304 18.6474 33.8512 16.9191L44.5282 16.9167ZM24.399 12.0833C25.3603 12.0833 26.3121 12.2709 27.2002 12.6352C28.0882 12.9996 28.8952 13.5336 29.5749 14.2068C30.2546 14.88 30.7937 15.6793 31.1616 16.5589C31.5294 17.4385 31.7187 18.3812 31.7187 19.3333C31.7187 20.2854 31.5294 21.2282 31.1616 22.1078C30.7937 22.9874 30.2546 23.7866 29.5749 24.4599C28.8952 25.1331 28.0882 25.6671 27.2002 26.0315C26.3121 26.3958 25.3603 26.5833 24.399 26.5833C22.4577 26.5833 20.5959 25.8195 19.2232 24.4599C17.8505 23.1002 17.0793 21.2561 17.0793 19.3333C17.0793 17.4105 17.8505 15.5664 19.2232 14.2068C20.5959 12.8472 22.4577 12.0833 24.399 12.0833ZM10.9796 0C12.9209 0 14.7827 0.763837 16.1554 2.12348C17.5281 3.48311 18.2993 5.32718 18.2993 7.25C18.2993 9.17282 17.5281 11.0169 16.1554 12.3765C14.7827 13.7362 12.9209 14.5 10.9796 14.5C9.03826 14.5 7.17646 13.7362 5.80375 12.3765C4.43104 11.0169 3.65986 9.17282 3.65986 7.25C3.65986 5.32718 4.43104 3.48311 5.80375 2.12348C7.17646 0.763837 9.03826 0 10.9796 0ZM37.8185 0C39.7598 0 41.6216 0.763837 42.9943 2.12348C44.367 3.48311 45.1382 5.32718 45.1382 7.25C45.1382 9.17282 44.367 11.0169 42.9943 12.3765C41.6216 13.7362 39.7598 14.5 37.8185 14.5C35.8772 14.5 34.0154 13.7362 32.6427 12.3765C31.27 11.0169 30.4988 9.17282 30.4988 7.25C30.4988 5.32718 31.27 3.48311 32.6427 2.12348C34.0154 0.763837 35.8772 0 37.8185 0Z" fill="#028A20"/>
</svg>
