<svg width="20" height="20" viewBox="0 0 20 20" fill="none" xmlns="http://www.w3.org/2000/svg">
<path d="M1.25 1.45755V16.0201C1.25 17.1246 2.14543 18.0201 3.25 18.0201H15.8125C16.9171 18.0201 17.8125 17.1246 17.8125 16.0201V3.4563C17.8125 2.35173 16.9171 1.4563 15.8125 1.4563H1.25125C1.25056 1.4563 1.25 1.45686 1.25 1.45755ZM16.5625 14.77C16.5625 15.8746 15.6671 16.77 14.5625 16.77H4.5C3.39543 16.77 2.5 15.8746 2.5 14.77V9.81255C2.5 8.70798 3.39543 7.81255 4.5 7.81255H5.60437C6.70894 7.81255 7.60437 6.91712 7.60437 5.81255V4.70755C7.60437 3.60298 8.49981 2.70755 9.60437 2.70755H14.5625C15.6671 2.70755 16.5625 3.60298 16.5625 4.70755V14.77ZM9.76937 11.0313C9.76915 11.0313 9.76903 11.0316 9.76919 11.0317L12.9111 14.1725C13.0637 14.325 13.0635 14.5724 12.9107 14.7247C12.6978 14.9369 12.7947 15.3 13.0851 15.3778L14.1459 15.6622C14.9067 15.8662 15.603 15.1699 15.399 14.4091L15.1128 13.3418C15.0357 13.0543 14.6764 12.9581 14.4659 13.1685C14.3149 13.3195 14.0701 13.3195 13.9191 13.1686L11.0521 10.3021C10.8995 10.1495 10.8996 9.90198 11.0525 9.74953C11.2654 9.53711 11.1683 9.17381 10.8778 9.09591L9.81783 8.81168C9.05691 8.60764 8.36047 9.30389 8.56433 10.0649L8.90907 11.3518C8.95977 11.541 9.19633 11.6045 9.33494 11.466L9.76956 11.0317C9.76972 11.0316 9.76961 11.0313 9.76937 11.0313Z" fill="#4F4F4F"/>
</svg>
