<svg width="24" height="42" viewBox="0 0 24 42" fill="none" xmlns="http://www.w3.org/2000/svg">
<path d="M4.52818 0.500452L4.52818 0.50049L4.53441 0.500517C5.00233 0.50239 5.46575 0.60343 5.89709 0.79835C6.3285 0.993296 6.71965 1.27849 7.0463 1.63814L7.04836 1.64039L22.4885 18.4333L22.4885 18.4333L22.4911 18.4362C23.1354 19.126 23.5 20.0582 23.5 21.0337C23.5 22.0083 23.136 22.9397 22.4928 23.6294C22.4923 23.6299 22.4917 23.6305 22.4911 23.6311L6.49443 40.4204C6.16673 40.7644 5.779 41.0358 5.35406 41.2206C4.92919 41.4053 4.47473 41.5 4.0164 41.5C3.55807 41.5 3.1036 41.4053 2.67873 41.2206L2.48035 41.6769L2.67873 41.2206C2.2538 41.0358 1.86608 40.7644 1.53837 40.4204C1.21062 40.0764 0.949421 39.6668 0.770817 39.2142C0.592203 38.7616 0.499996 38.2758 0.499997 37.7846C0.499997 37.2934 0.592204 36.8076 0.770817 36.355C0.949421 35.9024 1.21062 35.4927 1.53837 35.1488L14.738 21.3371L15.0616 20.9985L14.7448 20.6535L2.02469 6.79935L2.02473 6.79931L2.0194 6.79368C1.36464 6.10238 0.993201 5.16233 0.993201 4.17776C0.993202 3.19369 1.36426 2.25411 2.01839 1.56291C2.35047 1.21748 2.74356 0.946489 3.17393 0.764559C3.60484 0.582399 4.06519 0.492834 4.52818 0.500452Z" fill="#4A93B3" stroke="black"/>
</svg>
