<svg width="30" height="30" viewBox="0 0 40 40" fill="none" xmlns="http://www.w3.org/2000/svg">
<path d="M27.6923 0.289258C21.0539 0.289258 15.6723 3.25695 15.6723 6.9231C15.6723 10.5893 21.0554 13.5585 27.6923 13.5585C34.3308 13.5585 39.7123 10.5893 39.7123 6.9231C39.7123 3.25695 34.3292 0.28772 27.6923 0.28772V0.289258ZM39.7123 8.89387C39.7092 12.56 34.3308 15.5293 27.6923 15.5293C21.0723 15.5293 15.7031 12.5923 15.6723 8.9431V11.5385C15.6723 13.1046 16.6754 14.5385 18.3185 15.6739C19.98 16.1262 21.46 16.7539 22.6923 17.5477C24.22 17.9354 25.9 18.1723 27.6923 18.1723C34.3308 18.1723 39.7123 15.2046 39.7123 11.5385V8.89387ZM39.7123 13.5093C39.7123 17.1754 34.3308 20.1446 27.6923 20.1446C26.8846 20.1446 26.1 20.0846 25.3369 20C25.9391 20.811 26.3499 21.7477 26.5385 22.74C26.9216 22.7616 27.3 22.7877 27.6923 22.7877C34.3308 22.7877 39.7123 19.82 39.7123 16.1539V13.5093ZM12.3077 17.2108C5.66924 17.2108 0.287704 20.18 0.287704 23.8462C0.287704 27.5123 5.67078 30.4816 12.3077 30.4816C18.9462 30.4816 24.3277 27.5123 24.3277 23.8462C24.3277 20.18 18.9446 17.2108 12.3077 17.2108ZM39.7123 18.1246C39.7092 21.7908 34.3308 24.76 27.6923 24.76C27.3062 24.76 26.9154 24.7323 26.5385 24.7108C26.5216 24.8262 26.5123 24.98 26.4908 25.0954C26.5677 25.3277 26.6339 25.5569 26.6339 25.8185V27.357C26.9831 27.3739 27.3339 27.4031 27.6923 27.4031C34.3308 27.4031 39.7123 24.4354 39.7123 20.7693V18.1246ZM39.7123 22.74C39.7092 26.4062 34.3308 29.3754 27.6923 29.3754C27.3062 29.3754 26.9154 29.3477 26.5385 29.3262C26.5216 29.4416 26.5123 29.5954 26.4908 29.7108C26.5677 29.9416 26.6339 30.1723 26.6339 30.4339V31.9723C26.9831 31.9893 27.3339 32.0185 27.6923 32.0185C34.3308 32.0185 39.7123 29.0508 39.7123 25.3846V22.74ZM24.3277 25.8169C24.3246 29.4831 18.9462 32.4523 12.3077 32.4523C5.68771 32.4523 0.318474 29.5154 0.287704 25.8646V28.4616C0.287704 32.1277 5.66771 35.097 12.3077 35.097C18.9477 35.097 24.3277 32.1277 24.3277 28.4616V25.8169ZM24.3277 30.4323C24.3246 34.0985 18.9462 37.0677 12.3077 37.0677C5.68771 37.0677 0.318474 34.1308 0.287704 30.48V33.077C0.287704 36.7431 5.66771 39.7123 12.3077 39.7123C18.9477 39.7123 24.3277 36.7431 24.3277 33.077V30.4323Z" fill="#FFC700"/>
</svg>
