<svg width="141" height="142" viewBox="0 0 141 142" fill="none" xmlns="http://www.w3.org/2000/svg">
<rect width="141" height="141" rx="6" fill="white"/>
<rect x="0.5" y="0.5" width="140" height="140" rx="5.5" stroke="#2D47AF" stroke-opacity="0.15"/>
<g clip-path="url(#clip0)">
<path fill-rule="evenodd" clip-rule="evenodd" d="M111.509 35H77.2325L75.0513 35.9348L71.0004 39.9233L66.9496 35.9348L64.7684 35H30.492L27.376 38.116V100.437L30.492 103.553H63.4596L68.8192 108.85H73.1817L78.5412 103.553H111.509L114.625 100.437V38.116L111.509 35ZM67.8844 99.3149L66.7626 98.2555L64.7684 97.3207H33.608V41.2321H63.4596L68.0714 45.8438L67.8844 99.3149ZM108.393 97.3207H77.2325L75.0513 98.2555L74.1788 99.0657V45.5945L78.5412 41.2321H108.393V97.3207ZM58.5363 53.6962H39.8401V59.9283H58.5363V53.6962ZM58.5363 78.6245H39.8401V84.8565H58.5363V78.6245ZM39.8401 66.1603H58.5363V72.3924H39.8401V66.1603ZM102.161 53.6962H83.4646V59.9283H102.161V53.6962ZM83.4646 66.1603H102.161V72.3924H83.4646V66.1603ZM83.4646 78.6245H102.161V84.8565H83.4646V78.6245Z" fill="#4A93B3"/>
</g>
<defs>
<clipPath id="clip0">
<rect width="84" height="84" fill="white" transform="translate(29 28)"/>
</clipPath>
</defs>
</svg>
