<svg width="45" height="45" viewBox="0 0 45 45" fill="none" xmlns="http://www.w3.org/2000/svg">
<rect x="0.5" y="0.5" width="44" height="44" fill="black" fill-opacity="0.2" stroke="white"/>
<path d="M35.9375 8.9375H10.0625C9.44023 8.9375 8.9375 9.44023 8.9375 10.0625V35.9375C8.9375 36.5598 9.44023 37.0625 10.0625 37.0625H35.9375C36.5598 37.0625 37.0625 36.5598 37.0625 35.9375V10.0625C37.0625 9.44023 36.5598 8.9375 35.9375 8.9375ZM30.5691 19.1223C30.5797 19.2875 30.5797 19.4598 30.5797 19.6285C30.5797 24.7895 26.6492 30.7344 19.4668 30.7344C17.252 30.7344 15.1988 30.091 13.4691 28.9836C13.7855 29.0188 14.0879 29.0328 14.4113 29.0328C16.2395 29.0328 17.9199 28.4141 19.2594 27.3664C17.5437 27.3313 16.1023 26.2063 15.6102 24.6594C16.2113 24.7473 16.7527 24.7473 17.3715 24.5891C16.4881 24.4096 15.6941 23.9298 15.1244 23.2313C14.5546 22.5327 14.2443 21.6585 14.2461 20.757V20.7078C14.7629 20.9996 15.3711 21.1789 16.0074 21.2035C15.4725 20.847 15.0338 20.364 14.7302 19.7974C14.4267 19.2307 14.2676 18.5979 14.2672 17.9551C14.2672 17.2273 14.457 16.5629 14.798 15.9863C15.7786 17.1934 17.0021 18.1806 18.3891 18.8838C19.7762 19.587 21.2957 19.9905 22.8488 20.068C22.2969 17.4137 24.2797 15.2656 26.6633 15.2656C27.7883 15.2656 28.8008 15.7367 29.5145 16.4961C30.3969 16.3309 31.2406 16.0004 31.993 15.5574C31.7012 16.4609 31.0895 17.2238 30.2773 17.7055C31.0648 17.6211 31.8242 17.4031 32.5273 17.0973C31.9965 17.8777 31.332 18.5703 30.5691 19.1223Z" fill="white"/>
</svg>
