<svg width="23" height="22" viewBox="0 0 23 22" fill="none" xmlns="http://www.w3.org/2000/svg">
<path d="M9.66415 6.77232C9.55603 6.70175 9.43179 6.66269 9.30433 6.65919C9.17687 6.6557 9.05083 6.6879 8.93931 6.75244C8.82779 6.81699 8.73485 6.91154 8.67013 7.02627C8.60542 7.14099 8.57129 7.27172 8.57129 7.40487V15.088C8.57127 15.2228 8.60624 15.3551 8.67248 15.4708C8.73871 15.5866 8.83375 15.6814 8.94747 15.7452C9.06119 15.809 9.18934 15.8394 9.31831 15.8333C9.44727 15.8271 9.57222 15.7845 9.67987 15.7101L15.3942 11.7581C15.4937 11.6893 15.5751 11.5955 15.6309 11.4853C15.6867 11.3752 15.7152 11.2521 15.7138 11.1275C15.7124 11.0029 15.6811 10.8806 15.6228 10.7718C15.5644 10.6631 15.4809 10.5713 15.3799 10.505L9.66558 6.77232H9.66415Z" fill="white"/>
<path d="M3.57143 0.691406C2.62423 0.691406 1.71582 1.08435 1.04605 1.7838C0.376275 2.48325 0 3.43191 0 4.42108V17.8479C0 18.8371 0.376275 19.7857 1.04605 20.4852C1.71582 21.1846 2.62423 21.5776 3.57143 21.5776H19.2857C20.2329 21.5776 21.1414 21.1846 21.8111 20.4852C22.4809 19.7857 22.8572 18.8371 22.8572 17.8479V4.42108C22.8572 3.43191 22.4809 2.48325 21.8111 1.7838C21.1414 1.08435 20.2329 0.691406 19.2857 0.691406H3.57143ZM1.42857 4.42108C1.42857 3.82758 1.65434 3.25838 2.0562 2.83871C2.45807 2.41904 3.00311 2.18328 3.57143 2.18328H19.2857C19.8541 2.18328 20.3991 2.41904 20.801 2.83871C21.2028 3.25838 21.4286 3.82758 21.4286 4.42108V17.8479C21.4286 18.4414 21.2028 19.0106 20.801 19.4303C20.3991 19.8499 19.8541 20.0857 19.2857 20.0857H3.57143C3.00311 20.0857 2.45807 19.8499 2.0562 19.4303C1.65434 19.0106 1.42857 18.4414 1.42857 17.8479V4.42108Z" fill="white"/>
</svg>
