<svg width="28" height="28" viewBox="0 0 28 28" fill="none" xmlns="http://www.w3.org/2000/svg">
<path d="M2.3335 11.6668C2.3335 11.048 2.57933 10.4545 3.01691 10.0169C3.4545 9.57933 4.04799 9.3335 4.66683 9.3335H23.3335C23.9523 9.3335 24.5458 9.57933 24.9834 10.0169C25.421 10.4545 25.6668 11.048 25.6668 11.6668V19.8335C25.6668 20.4523 25.421 21.0458 24.9834 21.4834C24.5458 21.921 23.9523 22.1668 23.3335 22.1668H18.8208C18.4179 22.1668 18.0218 22.0625 17.6712 21.864C17.3206 21.6654 17.0273 21.3795 16.82 21.034L15 18.0007C14.8963 17.8282 14.7497 17.6854 14.5745 17.5864C14.3993 17.4873 14.2014 17.4352 14.0002 17.4352C13.7989 17.4352 13.601 17.4873 13.4258 17.5864C13.2506 17.6854 13.1041 17.8282 13.0003 18.0007L11.1803 21.034C10.973 21.3795 10.6798 21.6654 10.3291 21.864C9.9785 22.0625 9.58243 22.1668 9.1795 22.1668H4.66683C4.04799 22.1668 3.4545 21.921 3.01691 21.4834C2.57933 21.0458 2.3335 20.4523 2.3335 19.8335V11.6668Z" stroke="white" stroke-width="3" stroke-linecap="round" stroke-linejoin="round"/>
<path d="M4.4485 7.91133C4.87455 7.27234 5.45172 6.74837 6.12882 6.38591C6.80591 6.02345 7.56199 5.8337 8.33 5.8335H19.6677C20.4359 5.83351 21.1922 6.02317 21.8695 6.38563C22.5468 6.7481 23.1242 7.27217 23.5503 7.91133L24.5 9.3335H3.5L4.4485 7.91133V7.91133Z" stroke="white" stroke-width="3" stroke-linecap="round" stroke-linejoin="round"/>
</svg>
