<svg width="56" height="56" viewBox="0 0 56 56" fill="none" xmlns="http://www.w3.org/2000/svg">
<g filter="url(#filter0_d)">
<circle cx="28" cy="24" r="24" fill="white"/>
</g>
<path d="M42.28 14.9699C37.24 7.19994 26.95 4.88994 18.97 9.71994C11.2 14.5499 8.68003 25.0499 13.72 32.8199L14.14 33.4499L12.46 39.7499L18.76 38.0699L19.39 38.4899C22.12 39.9599 25.06 40.7999 28 40.7999C31.15 40.7999 34.3 39.9599 37.03 38.2799C44.8 33.2399 47.11 22.9499 42.28 14.9699ZM37.87 31.1399C37.03 32.3999 35.98 33.2399 34.51 33.4499C33.67 33.4499 32.62 33.8699 28.42 32.1899C24.85 30.5099 21.91 27.7799 19.81 24.6299C18.55 23.1599 17.92 21.2699 17.71 19.3799C17.71 17.6999 18.34 16.2299 19.39 15.1799C19.81 14.7599 20.23 14.5499 20.65 14.5499H21.7C22.12 14.5499 22.54 14.5499 22.75 15.3899C23.17 16.4399 24.22 18.9599 24.22 19.1699C24.43 19.3799 24.43 19.7999 24.22 20.0099C24.43 20.4299 24.22 20.8499 24.01 21.0599C23.8 21.2699 23.59 21.6899 23.38 21.8999C22.96 22.1099 22.75 22.5299 22.96 22.9499C23.8 24.2099 24.85 25.4699 25.9 26.5199C27.16 27.5699 28.42 28.4099 29.89 29.0399C30.31 29.2499 30.73 29.2499 30.94 28.8299C31.15 28.4099 32.2 27.3599 32.62 26.9399C33.04 26.5199 33.25 26.5199 33.67 26.7299L37.03 28.4099C37.45 28.6199 37.87 28.8299 38.08 29.0399C38.29 29.6699 38.29 30.5099 37.87 31.1399Z" fill="#00CE21"/>
<defs>
<filter id="filter0_d" x="0" y="0" width="56" height="56" filterUnits="userSpaceOnUse" color-interpolation-filters="sRGB">
<feFlood flood-opacity="0" result="BackgroundImageFix"/>
<feColorMatrix in="SourceAlpha" type="matrix" values="0 0 0 0 0 0 0 0 0 0 0 0 0 0 0 0 0 0 127 0" result="hardAlpha"/>
<feOffset dy="4"/>
<feGaussianBlur stdDeviation="2"/>
<feComposite in2="hardAlpha" operator="out"/>
<feColorMatrix type="matrix" values="0 0 0 0 0 0 0 0 0 0 0 0 0 0 0 0 0 0 0.25 0"/>
<feBlend mode="normal" in2="BackgroundImageFix" result="effect1_dropShadow"/>
<feBlend mode="normal" in="SourceGraphic" in2="effect1_dropShadow" result="shape"/>
</filter>
</defs>
</svg>
