<svg width="45" height="45" viewBox="0 0 45 45" fill="none" xmlns="http://www.w3.org/2000/svg">
<rect x="0.5" y="0.5" width="44" height="44" fill="black" fill-opacity="0.2" stroke="white"/>
<path d="M23.5626 15.0994C21.6373 15.1013 19.7914 15.8669 18.4298 17.2281C17.0683 18.5894 16.3024 20.4351 16.3001 22.3604C16.2986 23.7313 16.6836 25.0671 17.4098 26.2236L17.5819 26.4977L16.8484 29.1767L19.5973 28.4563L19.8613 28.6138C20.9806 29.2762 22.2575 29.6253 23.5582 29.6244H23.5596C25.4843 29.6217 27.3294 28.856 28.6905 27.4952C30.0516 26.1344 30.8176 24.2895 30.8207 22.3648C30.824 21.4108 30.6381 20.4656 30.2736 19.584C29.9091 18.7023 29.3734 17.9017 28.6973 17.2286C28.0248 16.5517 27.2247 16.0149 26.3433 15.6495C25.4619 15.284 24.5167 15.097 23.5626 15.0994ZM27.8326 25.4798C27.6503 25.9902 26.7782 26.454 26.3596 26.5167C25.9008 26.5958 25.4298 26.5663 24.9844 26.4306C24.5619 26.2998 24.1466 26.1464 23.7405 25.9713C21.5501 25.0263 20.1209 22.8227 20.0101 22.6754C19.9021 22.5296 19.1205 21.4913 19.1205 20.4179C19.1205 19.3431 19.6834 18.8152 19.8832 18.5965C19.9565 18.5136 20.0462 18.4467 20.1466 18.4C20.2469 18.3534 20.3559 18.3279 20.4665 18.3252C20.6123 18.3252 20.7567 18.3267 20.8851 18.3325C21.0192 18.3383 21.1986 18.2815 21.3751 18.7073C21.5573 19.1448 21.9948 20.2181 22.0488 20.3275C22.1028 20.4354 22.1392 20.5638 22.0678 20.7096C21.9948 20.8569 21.9598 20.9458 21.849 21.0742C21.7411 21.2025 21.6201 21.3586 21.5223 21.4577C21.413 21.5656 21.2992 21.6838 21.4261 21.9025C21.5544 22.1198 21.9919 22.8358 22.6394 23.4148C23.4736 24.1586 24.178 24.3875 24.3953 24.4983C24.614 24.6063 24.7409 24.5902 24.8692 24.4429C24.9961 24.2956 25.4146 23.8056 25.5605 23.5883C25.7063 23.3696 25.8507 23.4061 26.0519 23.4775C26.2517 23.5519 27.3251 24.0783 27.5423 24.1877C27.7582 24.2956 27.9055 24.3511 27.9609 24.4429C28.0134 24.5333 28.0134 24.9694 27.8326 25.4798Z" fill="white"/>
<path d="M35.1667 9.375H11.8333C11.4466 9.375 11.0756 9.52865 10.8021 9.80214C10.5286 10.0756 10.375 10.4466 10.375 10.8333V34.1667C10.375 34.5534 10.5286 34.9244 10.8021 35.1979C11.0756 35.4714 11.4466 35.625 11.8333 35.625H35.1667C35.5534 35.625 35.9244 35.4714 36.1979 35.1979C36.4714 34.9244 36.625 34.5534 36.625 34.1667V10.8333C36.625 10.4466 36.4714 10.0756 36.1979 9.80214C35.9244 9.52865 35.5534 9.375 35.1667 9.375ZM23.5583 31.0983H23.5554C22.0972 31.0985 20.6621 30.733 19.3817 30.0352L14.75 31.25L15.9896 26.7233C15.2239 25.3951 14.8213 23.8888 14.822 22.3557C14.8228 20.8226 15.2269 19.3167 15.9939 17.9892C16.7608 16.6618 17.8636 15.5595 19.1914 14.7931C20.5192 14.0267 22.0252 13.6232 23.5583 13.6231C24.7068 13.6199 25.8445 13.8448 26.9054 14.2846C27.9664 14.7245 28.9294 15.3706 29.7388 16.1854C30.5519 16.9953 31.1962 17.9585 31.6345 19.0191C32.0729 20.0797 32.2964 21.2168 32.2923 22.3644C32.2888 24.6797 31.3675 26.8992 29.7303 28.5364C28.0932 30.1736 25.8737 31.0949 23.5583 31.0983Z" fill="white"/>
</svg>
