<svg width="50" height="50" viewBox="0 0 71 71" fill="none" xmlns="http://www.w3.org/2000/svg">
<path fill-rule="evenodd" clip-rule="evenodd" d="M4.7334 7.1C4.7334 5.21696 5.48143 3.41105 6.81294 2.07954C8.14445 0.748033 9.95036 0 11.8334 0L50.6799 0L66.2667 15.5869V63.9C66.2667 65.783 65.5187 67.589 64.1872 68.9205C62.8557 70.252 61.0498 71 59.1667 71H11.8334C9.95036 71 8.14445 70.252 6.81294 68.9205C5.48143 67.589 4.7334 65.783 4.7334 63.9V7.1ZM14.2001 34.5202V28.4H9.46673V36.4798L13.2203 40.2333L9.46673 43.9869V52.0667H14.2001V45.9465L16.5667 43.5798L18.9334 45.9465V52.0667H23.6667V43.9869L19.9132 40.2333L23.6667 36.4798V28.4H18.9334V34.5202L16.5667 36.8869L14.2001 34.5202ZM28.4001 28.4H33.1334V47.3333H42.6001V52.0667H28.4001V28.4ZM61.5334 28.4H47.3334V42.6H56.8001V47.3333H47.3334V52.0667H61.5334V37.8667H52.0667V33.1333H61.5334V28.4Z" fill="#028A20"/>
</svg>
