<svg xmlns="http://www.w3.org/2000/svg" viewBox="0 0 565 315"><defs><style>.cls-1{fill:#539cbd;}</style></defs><title>Asset 2</title><g id="Layer_2" data-name="Layer 2"><g id="Layer_1-2" data-name="Layer 1"><path class="cls-1" d="M238.26,238.4l0,0a5.18,5.18,0,0,0-4.77-3.16,5.24,5.24,0,0,0-4.68,2.91l-.06.17a3,3,0,0,0-.21.49l-1.23,3a6.83,6.83,0,0,0-.52,2.61,6.71,6.71,0,1,0,13.41,0,6.85,6.85,0,0,0-.53-2.62Z"/><path class="cls-1" d="M233.07,123a28.43,28.43,0,1,0-28.43,28.42A28.45,28.45,0,0,0,233.07,123Z"/><path class="cls-1" d="M339.55,94.53A28.42,28.42,0,1,0,368,123,28.45,28.45,0,0,0,339.55,94.53Z"/><path class="cls-1" d="M564.08,0H488.92a.92.92,0,0,0-.92.92V69.14a.93.93,0,0,0,.57.85c7.71,3.3,7.95,3.78,7.61,12.91a16.42,16.42,0,0,0,4.88,12.73c5.29,5.57,9.86,11.56,11.77,19.24,4.95,19.83-10.79,39.3-31.21,38.38-22.57-1-36.24-25.59-25.23-46.11a38.41,38.41,0,0,1,7.51-10c4.91-4.59,6.55-10,6.23-16.62-.3-6.3,3.18-10.71,8.15-12a.92.92,0,0,0,.72-.89V.92a.92.92,0,0,0-.92-.92H67.65A67.65,67.65,0,0,0,0,67.65V314.08a.92.92,0,0,0,.92.92H389.09A175.91,175.91,0,0,0,565,139.09V.92A.92.92,0,0,0,564.08,0ZM113.37,280.18a9.08,9.08,0,0,1-.33,1.51l-1-.1,1,.31c-.08.29-.19.54-.29.81l-.11.24a9.26,9.26,0,0,1-.7,1.27c-.08.13-.14.24-.23.36a9,9,0,0,1-.73.89l-.18.19-.38.38a1.91,1.91,0,0,1-.35.35l-.24.16a10.53,10.53,0,0,1-1.18.81l-.32.17a10,10,0,0,1-1.57.69l-.1,0h0a9.63,9.63,0,0,1-11.19-4L57.58,239.66a3.08,3.08,0,0,0-2.1-.84A3.17,3.17,0,0,0,52.31,242v36.94a9.81,9.81,0,1,1-19.62,0v-71.3a9.69,9.69,0,0,1,3.38-8.55,6.62,6.62,0,0,1,.63-.45l.25-.17.21-.13a11,11,0,0,1,1.34-.72c.15-.06.27-.12.4-.16a9.67,9.67,0,0,1,1.29-.41l.58-.13c.46-.06.83-.1,1.22-.12a2.79,2.79,0,0,1,1,0,3.74,3.74,0,0,1,.48,0l.57.07a7.83,7.83,0,0,1,.94.19l.25.08a9.79,9.79,0,0,1,1.62.62h0l0,0a9.75,9.75,0,0,1,3.76,3.27l37.8,44.58a3.18,3.18,0,0,0,2.22.9,3.15,3.15,0,0,0,3.14-3.15V206.56a9.83,9.83,0,0,1,19.65,0v71.27A9.42,9.42,0,0,1,113.37,280.18Zm.55-119.89a9.83,9.83,0,1,1-19.65,0V136.42a3.16,3.16,0,0,0-3.14-3.16H55.41a3.17,3.17,0,0,0-3.17,3.16v23.87a9.8,9.8,0,0,1-2.87,7,9.69,9.69,0,0,1-6.94,2.87,9.84,9.84,0,0,1-9.82-9.83v-73a9.82,9.82,0,0,1,19.63,0v23.21a3.17,3.17,0,0,0,3.17,3.16H91.13a3.16,3.16,0,0,0,3.14-3.16V87.26a9.83,9.83,0,0,1,19.65,0ZM166,278.93a9.82,9.82,0,1,1-19.64,0V206.57a9.82,9.82,0,1,1,19.64,0Zm-7.4-155.47a46,46,0,1,1,46,46A46.06,46.06,0,0,1,158.63,123.46ZM272.52,282.73a9.82,9.82,0,0,1-18.14,0l-3.23-7.78a19.2,19.2,0,0,0-35.36,0l-3.23,7.79a9.82,9.82,0,0,1-18.14-7.51l30-72.47a9.41,9.41,0,0,1,.86-1.6.37.37,0,0,1,.06-.1,9.67,9.67,0,0,1,2.58-2.6l.27-.18a8.51,8.51,0,0,1,1.47-.78,2.46,2.46,0,0,1,.38-.14,9.46,9.46,0,0,1,1.56-.47l.42,0a1.66,1.66,0,0,0,.22,0,9.2,9.2,0,0,1,2.34,0l.4.05.4,0a8.75,8.75,0,0,1,1.71.51,1.72,1.72,0,0,1,.21.07.86.86,0,0,1,.19.11,7.41,7.41,0,0,1,1.45.78,10,10,0,0,1,2.73,2.7,1.86,1.86,0,0,1,.1.2,9.17,9.17,0,0,1,.81,1.49l30,72.48A9.69,9.69,0,0,1,272.52,282.73Zm109.08-2.55a8.17,8.17,0,0,1-.33,1.51l-1-.1,1,.31c-.09.29-.2.54-.3.81l-.1.24a10.54,10.54,0,0,1-.71,1.27c-.08.13-.14.24-.23.36a9,9,0,0,1-.73.89l-.17.19-.39.38a1.91,1.91,0,0,1-.35.35l-.23.16a11.55,11.55,0,0,1-1.19.81l-.32.17a9.28,9.28,0,0,1-1.57.69l-.09,0h0a9.63,9.63,0,0,1-11.19-4l-37.81-44.57a3,3,0,0,0-2.1-.84,3.18,3.18,0,0,0-3.17,3.17v36.94a9.81,9.81,0,1,1-19.62,0v-71.3a9.71,9.71,0,0,1,3.38-8.55,6.74,6.74,0,0,1,.64-.45l.24-.17.21-.13a11,11,0,0,1,1.34-.72c.15-.06.27-.12.4-.16a9.67,9.67,0,0,1,1.29-.41l.58-.13c.46-.06.83-.1,1.22-.12a2.79,2.79,0,0,1,1,0,3.62,3.62,0,0,1,.48,0l.57.07a8.4,8.4,0,0,1,.95.19l.24.08a9.45,9.45,0,0,1,1.62.62h0l0,0a9.75,9.75,0,0,1,3.76,3.27l37.81,44.58a3.15,3.15,0,0,0,5.36-2.25V206.56a9.82,9.82,0,0,1,19.64,0v71.27A9.42,9.42,0,0,1,381.6,280.18ZM339.55,169.47a46,46,0,1,1,46-46A46.07,46.07,0,0,1,339.55,169.47ZM445.71,84.66l.55-.55a2.89,2.89,0,0,1,4.09,0l6.74,6.74a2.89,2.89,0,0,1,0,4.1l-.54.55a2.9,2.9,0,0,1-4.1,0l-6.74-6.74A2.9,2.9,0,0,1,445.71,84.66Zm-14,35.09V119a2.89,2.89,0,0,1,2.89-2.89h9.54A2.89,2.89,0,0,1,447,119v.78a2.89,2.89,0,0,1-2.89,2.9h-9.54A2.9,2.9,0,0,1,431.7,119.75Zm24.3,32.5L449.26,159a2.9,2.9,0,0,1-4.1,0l-.54-.55a2.89,2.89,0,0,1,0-4.1l6.74-6.74a2.89,2.89,0,0,1,4.09,0l.55.55A2.9,2.9,0,0,1,456,152.25Zm30.43,17.85a2.9,2.9,0,0,1-2.9,2.9h-.77a2.9,2.9,0,0,1-2.9-2.9v-9.53a2.9,2.9,0,0,1,2.9-2.9h.77a2.9,2.9,0,0,1,2.9,2.9Zm23.32-74.6L509.2,95a2.9,2.9,0,0,1,0-4.1l6.74-6.74a2.9,2.9,0,0,1,4.1,0l.55.55a2.9,2.9,0,0,1,0,4.1l-6.75,6.74A2.89,2.89,0,0,1,509.75,95.5Zm14.12,62.94-.55.55a2.9,2.9,0,0,1-4.1,0l-6.74-6.74a2.9,2.9,0,0,1,0-4.1l.55-.55a2.9,2.9,0,0,1,4.1,0l6.74,6.74A2.9,2.9,0,0,1,523.87,158.44Zm11.82-38.69a2.9,2.9,0,0,1-2.9,2.9h-9.53a2.89,2.89,0,0,1-2.89-2.9V119a2.89,2.89,0,0,1,2.89-2.89h9.53a2.89,2.89,0,0,1,2.9,2.89Z"/></g></g></svg>